<svg width="20" height="20" viewBox="0 0 20 20" fill="none" xmlns="http://www.w3.org/2000/svg">
<path d="M10 1C5.03748 1 1 5.03748 1 10C1 14.9625 5.03748 19 10 19C14.9625 19 19 14.9625 19 10C19 5.03748 14.9625 1 10 1ZM10 2.12501C14.3423 2.12501 17.875 5.65767 17.875 10C17.875 11.809 17.2556 13.4725 16.2262 14.8036C12.278 12.935 7.72195 12.935 3.7738 14.8036C2.74445 13.4725 2.12501 11.809 2.12501 10C2.12501 5.65767 5.65767 2.12501 10 2.12501ZM4.56293 15.6831C8.03366 14.1458 11.9663 14.1458 15.4371 15.6831C14.0221 17.0374 12.1087 17.8751 10 17.8751C7.8913 17.8751 5.9779 17.0373 4.56293 15.6831Z" fill="black" stroke="#250104" stroke-width="0.8"/>
<path d="M10 12.25C11.8611 12.25 13.375 10.7361 13.375 8.875C13.375 7.0139 11.8611 5.5 10 5.5C8.13893 5.5 6.625 7.0139 6.625 8.875C6.625 10.7361 8.13893 12.25 10 12.25ZM10 6.62501C11.2409 6.62501 12.25 7.63411 12.25 8.875C12.25 10.1159 11.2409 11.125 10 11.125C8.75908 11.125 7.75001 10.1159 7.75001 8.875C7.75001 7.63411 8.75911 6.62501 10 6.62501Z" fill="black" stroke="#250104" stroke-width="0.8"/>
</svg>
